<mxfile host="app.diagrams.net" modified="2023-04-29T02:02:24.927Z" agent="Mozilla/5.0 (Windows NT 10.0; Win64; x64) AppleWebKit/537.36 (KHTML, like Gecko) Chrome/112.0.0.0 Safari/537.36 Edg/112.0.1722.48" version="21.1.2" etag="MdCe6GuslXKZX9C0-rbb" type="github">
  <diagram name="Page-1" id="GIuUWON4YLmm21dWMOpi">
    <mxGraphModel>
      <root>
        <mxCell id="0" />
        <mxCell id="1" parent="0" />
      </root>
    </mxGraphModel>
  </diagram>
</mxfile>
